<?xml version="1.0" standalone="no"?><!DOCTYPE svg PUBLIC "-//W3C//DTD SVG 1.1//EN" "http://www.w3.org/Graphics/SVG/1.1/DTD/svg11.dtd"><svg t="1502972615788" id="index-c" class="icon" style="" viewBox="0 0 1024 1024" version="1.1" xmlns="http://www.w3.org/2000/svg" p-id="4598" xmlns:xlink="http://www.w3.org/1999/xlink" width="48" height="48"><defs><style type="text/css"></style></defs><path d="M622.072443 623.968118" p-id="4599" fill="#1296db"></path><path d="M703.692369 522.587126" p-id="4600" fill="#1296db"></path><path d="M215.89356 476.256938" p-id="4601" fill="#1296db"></path><path d="M601.214393 408.834362" p-id="4602" fill="#1296db"></path><path d="M674.251849 712.855564" p-id="4603" fill="#1296db"></path><path d="M725.820342 679.678954" p-id="4604" fill="#1296db"></path><path d="M430.531012 731.044832" p-id="4605" fill="#1296db"></path><path d="M552.971645 642.387629" p-id="4606" fill="#1296db"></path><path d="M440.007851 580.487837c-0.487094 0.122797-0.981351 0.202615-1.482771 0.23843-1.820462 0.1361-44.896536 2.934842-73.800843-28.29851-2.730181-2.948145-3.02694-7.40362-0.713244-10.69048 0.979304-1.388627 24.441669-34.145681 67.291592-45.104267 33.372062-8.532327 68.673056-1.544169 104.917538 20.777209 0.321318 0.200568 0.633427 0.422625 0.929162 0.663102 4.433986 3.629667 6.579859 8.532327 6.027274 13.798261-1.426489 13.614066-22.014386 25.26236-28.291346 28.508287-0.546446 0.282433-1.127683 0.50756-1.725294 0.666172l-73.071226 19.421328C440.059016 580.473511 440.033433 580.476581 440.007851 580.487837zM382.569674 545.976836c21.156856 18.024515 49.230238 17.937534 54.014194 17.778922l71.266114-18.936281c7.978718-4.269233 15.921621-10.42749 17.943674-13.803377-31.625278-19.091824-61.986773-25.104771-90.266863-17.872043C408.888086 519.954159 390.613884 537.064862 382.569674 545.976836z" p-id="4607" fill="#1296db"></path><path d="M705.931363 550.465057c-16.96744 4.338818-44.537356 0.722454-81.937151-10.745738-2.333138-0.716314-4.250814-2.39556-5.262864-4.620227-1.010003-2.221598-1.01819-4.76963-0.026606-6.997368 0.515746-1.161453 13.009292-28.544103 40.785915-35.647895 8.399297-2.14792 17.305131-2.192945 26.483164-0.12689 18.023492 4.058432 30.280654 11.088546 36.429701 20.895913 4.40738 7.017834 4.322445 13.278421 3.963265 16.134469C726.340181 535.817452 722.090391 546.332946 705.931363 550.465057zM639.477858 526.506389c35.712363 9.997702 53.501518 9.680477 62.231343 7.449669 3.690042-0.946558 6.349615-2.438539 7.29515-4.095271 0.225127-0.387833 0.288572-0.685615 0.305969-0.797156 0.005117-0.044002 0.005117-0.068562 0.008186-0.068562 0.00614-0.002047 0.022513 0.60989 0.022513 0.60989l8.483208-0.781806-8.29799-1.933025c0 0-0.040932 0.124843-0.068562 0.350994 0.538259-4.082992-4.454452-13.158694-27.224038-18.288528-6.51846-1.466398-12.753465-1.460258-18.518772 0.016373C652.22723 511.904833 644.213719 520.083096 639.477858 526.506389z" p-id="4608" fill="#1296db"></path><path d="M472.694297 731.943294c0 0 62.472843 45.044916 140.547013 25.703405 78.06803-19.335371 75.019601-65.72798 76.635401-66.756403C691.498652 689.838338 624.356462 656.05593 472.694297 731.943294z" p-id="4609" fill="#1296db"></path><path d="M307.263547 286.816355c-6.045693 16.122189-9.522887 25.65224-15.225773 40.152489-0.060375 0.145309 11.203156-14.113439 27.213805-6.28003 9.469676 4.637624 17.652032 17.936511 12.936637 30.074969-6.504134 16.743336-22.3838 18.313088-32.216749 12.882402-14.854313-8.204869-12.589736-25.618471-12.638855-25.496697-9.647731 24.552186-16.870226 43.458791-23.620977 67.084884-7.554046 26.446325 4.755304 36.335556 30.463826 28.179806 45.726437-14.504342 91.432409-29.071106 137.117914-43.699268 1.281179-0.411369-22.206768 1.760087-29.901007-22.24463-9.315156-29.05064 17.910928-38.680974 19.364023-39.146579 16.576537-5.314029 32.81436 6.16542 37.539988 20.903076 7.697309 24.004717-12.710486 35.907815-11.57871 35.543517 50.80306-16.287965 101.58156-32.656771 152.329361-49.107441 25.512047-8.264221 29.836539-23.703865 7.544837-40.485063-21.947871-16.508999-45.160549-33.100886-69.555146-45.358047 0 0 2.705622 9.695826-1.465374 16.612353-6.03546 10.013051-16.151865 9.959839-19.21769 9.347902-2.425236-0.483001-15.131629-3.439332-16.358573-18.881023-0.980327-12.258185 9.732665-18.594497 9.732665-18.594497-60.360739-20.273742-117.661793-4.247744-174.894286 35.95284-9.317203-26.202779-10.809183-33.114189-12.398378-38.749536-6.80294-24.004717-28.617781-56.431244-44.929282-66.447365-5.007037-3.080152-25.476231-14.915711-28.638247-15.592117-7.394411-1.564635-24.376177-3.015683-30.458709-0.485047-4.490268 1.849114-8.867972 13.393032-7.330966 19.009959 5.963829 21.508873 14.620999 46.851051 22.687722 62.893422 7.132444 14.192234 26.019607 27.576055 39.664372 36.891212C286.420847 280.627399 298.921555 282.415115 307.263547 286.816355zM472.58992 469.489814c61.954027-19.860327 123.81084-40.124859 185.947016-59.383482 22.289656-6.907317 33.355689-20.294209 27.569916-44.74611-5.15951-21.623483-24.941042-30.7964-49.952692-22.849404-122.252345 38.867216-244.417709 78.033237-366.501208 117.485785-26.275433 8.497535-35.435047 24.927739-28.178783 46.929846 7.297197 22.119787 23.421432 28.952402 50.485835 20.396539C352.213295 508.259816 412.373467 488.792439 472.58992 469.489814z" p-id="4610" fill="#1296db"></path><path d="M484.206492 513.373277c2.451842 9.577123-3.327792 19.346627-12.918217 21.796422-9.584286 2.451842-19.336394-3.341095-21.787212-12.923334-2.448772-9.578146 3.324722-19.343557 12.910031-21.793352C472.000496 498.000148 481.75772 503.791038 484.206492 513.373277z" p-id="4611" fill="#1296db"></path><path d="M669.491429 509.900176c1.49505 5.842055-2.018983 11.806907-7.861038 13.302981-5.843078 1.49198-11.792581-2.052752-13.284561-7.895831-1.496074-5.840008 2.030239-11.780301 7.870248-13.273305C662.058133 500.54204 667.996378 504.060167 669.491429 509.900176z" p-id="4612" fill="#1296db"></path><path d="M676.574754 393.839857c25.340131 31.019481 45.653783 67.652819 59.487859 107.980293 24.892947 72.574922 25.876344 148.56564 2.768043 213.980489-11.298324 31.982412-27.754111 59.71708-48.91506 82.426291-21.99085 23.605627-48.104601 40.706097-77.606519 50.825572-29.500894 10.119475-60.609403 12.647041-92.462878 7.512091-30.637788-4.941546-60.652382-16.736173-89.204671-35.052331-58.395992-37.45403-104.263645-98.048083-129.157615-170.623006-13.801331-40.2364-20.2543-81.527828-19.327184-121.484865l-0.030699-0.090051 18.920932-6.489808 0.784876-0.221034c-2.029216 39.192627 3.526313 80.850399 17.675568 122.098849 47.862078 139.534963 176.188768 222.385926 286.062178 184.698582 109.875456-37.688367 160.327522-181.867094 112.462375-321.400011-14.182001-41.351803-35.438117-77.727269-61.182454-107.464547l0.688685 0.004093L676.574754 393.839857z" p-id="4613" fill="#1296db"></path></svg>